<svg width="50" height="50" viewBox="0 0 50 50" fill="none" xmlns="http://www.w3.org/2000/svg">
<path fill-rule="evenodd" clip-rule="evenodd" d="M5.07083 13.7789L5.15824 13.4488L5.24566 13.0363L9.09182 0L50.001 0.0825081L4.80859 34.8184L25.438 11.3036H9.96594L9.09182 11.3861C7.25615 11.4686 5.59531 12.5412 5.07083 13.7789Z" fill="#808285"/>
<path fill-rule="evenodd" clip-rule="evenodd" d="M47.8155 23.8454C47.8155 23.6804 46.5044 31.1886 44.319 38.9444L1.57422 39.1919L47.7281 3.96094L27.0113 27.6408H42.5708L43.4449 27.5583C45.2806 27.4758 47.2037 25.083 47.8155 23.8454Z" fill="#ED1C24"/>
<path fill-rule="evenodd" clip-rule="evenodd" d="M7.25525 50H0L4.98252 43.5643H1.66084L1.92308 41.7491H8.82868L3.84616 48.1848H7.51749L7.25525 50ZM8.65386 50L9.79022 41.7491H14.7727L14.5105 43.5643H11.7133L11.5385 44.967H14.1609L13.986 46.7821H11.2762L11.1014 48.1848H13.8986L13.6364 50H8.65386ZM15.1224 50L16.2588 41.7491H18.4441L20.979 46.0396L21.1539 46.5346L21.5035 47.4422C21.5087 46.9187 21.5379 46.3957 21.5909 45.8746L22.1154 41.7491H24.3007L23.1644 50H21.0665L18.5315 45.792L18.2693 45.2145L17.9196 44.3069C17.9151 44.8579 17.8859 45.4084 17.8322 45.9571L17.3077 50H15.1224ZM25 50L26.1364 41.7491H28.4091L27.2728 50H25ZM30.2448 50L31.1189 43.7293H29.2833L29.5455 41.7491H35.4896L35.2273 43.7293H33.3917L32.5175 50H30.2448ZM35.4021 50L36.5385 41.7491H38.8112L38.3742 44.967H41.3462L41.7833 41.7491H44.056L42.9196 50H40.6469L41.084 46.6171H38.1119L37.6749 50H35.4021Z" fill="#808285"/>
</svg>
